<svg width="800" height="800" viewBox="200 150 400 350" xmlns="http://www.w3.org/2000/svg" xmlns:xlink="http://www.w3.org/1999/xlink">
	<g>
		<path
			stroke-width="1px"
			fill="rgb(250, 250, 250)"
			stroke="rgb(250, 250, 250)"
			d="m  225, 305
				l  98, -90
				l  22, 16
				l  58, -68
				l  50, 60
				l  26, -22
				l  102, 102
				l  -45, -30
				l  -35, -30
				l  -17, -25
				l  4, 32
				l  -13, -30
				l  0, -7
				l  -18, 17
				l  14, 22
				l  -67, -77
				l  6, 33
				l  -7, 10
				l  -6, 35
				l   6, 28
				l  -22, -30
				l  21, -77
				l  -58, 66
				l  -20, -16
				l  -4, 44
				l  -10, 8
				l  -14, 5
				l  10, -10
				l  14, -45
				l  -30, 30
				z" />
	</g>

	<g transform="rotate(-10, 369.5, 355.569)">
		<g>
			<path fill="rgb(250, 250, 250)" stroke="rgb(250, 250, 250)" stroke-width="2" d="m213,402s260,-15 150,-55s80,-65 160,-40l-20,-5s-240,-5 -130,40s-80,70 -160,60z" id="svg_4"/>
		</g>
		<g>
			<path fill="rgb(250, 250, 250)" stroke="rgb(250, 250, 250)" d="m253,410s255,-5 148,-60s120,-55 125,-42l0,0s-7,-1 -22,-1s-186,-4 -91,39s-45,81 -159,64l-1,0z" id="svg_6"/>
		</g>
	</g>
</svg>