<svg width="100" height="100" viewBox="0 0 24 24" xmlns="http://www.w3.org/2000/svg">
	<circle cx="12" cy="12" r="4" fill="none" stroke="black" stroke-width="1"/>
	<path fill="none" stroke="black" stroke-width="1" d="
		M 22.7886 14.146 L 19.8463 13.5607
		L 18.6518 16.4446 L 21.1462 18.1113
		L 18.1113 21.1462 L 16.4446 18.6518
		L 13.5607 19.8463 L 14.146 22.7886
		L 9.854 22.7886 L 10.4393 19.8463
		L 7.5554 18.6518 L 5.8887 21.1462
		L 2.8538 18.1113 L 5.3482 16.4446
		L 4.1537 13.5607 L 1.2114 14.146
		L 1.2114 9.854 L 4.1537 10.4393
		L 5.3482 7.5554 L 2.8538 5.8887
		L 5.8887 2.8538 L 7.5554 5.3482
		L 10.4393 4.1537 L 9.854 1.2114
		L 14.146 1.2114 L 13.5607 4.1537
		L 16.4446 5.3482 L 18.1113 2.8538
		L 21.1462 5.8887 L 18.6518 7.5554
		L 19.8463 10.4393 L 22.7886 9.854
		Z" />
</svg>